<svg id="Layer_1" data-name="Layer 1" xmlns="http://www.w3.org/2000/svg" viewBox="0 0 529.88 807.07"><defs><style>.cls-1,.cls-2,.cls-3,.cls-4,.cls-5,.cls-6,.cls-7,.cls-8,.cls-9{fill:#eee;stroke:#eee;stroke-linecap:round;stroke-linejoin:round;}.cls-2{stroke-width:0.65px;}.cls-3{stroke-width:0.55px;}.cls-4{stroke-width:0.39px;}.cls-5{stroke-width:0.5px;}.cls-6{fill-rule:evenodd;}.cls-7{stroke-width:0.75px;}.cls-8{stroke-width:0.73px;}.cls-9{stroke-width:0.96px;}</style></defs><title>Artboard 1</title><circle class="cls-1" cx="438.63" cy="109.61" r="22.5"/><circle class="cls-1" cx="438.63" cy="109.61" r="22.5"/><circle class="cls-1" cx="363.63" cy="226.61" r="14.5"/><circle class="cls-1" cx="255.63" cy="226.61" r="14.5"/><circle class="cls-1" cx="291.13" cy="48.11" r="10"/><circle class="cls-1" cx="460.13" cy="331.11" r="7"/><ellipse class="cls-1" cx="401.13" cy="274.61" rx="6" ry="5.5"/><ellipse class="cls-1" cx="283.13" cy="169.61" rx="6" ry="5.5"/><line class="cls-1" x1="363.63" y1="226.61" x2="438.63" y2="109.61"/><line class="cls-1" x1="401.13" y1="272.11" x2="439.13" y2="110.11"/><line class="cls-1" x1="460.63" y1="331.61" x2="438.63" y2="109.61"/><line class="cls-1" x1="255.63" y1="226.61" x2="438.63" y2="109.61"/><ellipse class="cls-1" cx="226.13" cy="88.61" rx="15" ry="14.5"/><line class="cls-1" x1="226.63" y1="88.61" x2="438.63" y2="109.61"/><ellipse class="cls-2" cx="387.97" cy="28.03" rx="9.99" ry="9.18" transform="translate(74.77 258.71) rotate(-40.5)"/><line class="cls-3" x1="389.84" y1="30.22" x2="438.63" y2="109.61"/><ellipse class="cls-4" cx="491.58" cy="46.52" rx="5.79" ry="5.59" transform="translate(175.73 426.07) rotate(-55.64)"/><line class="cls-4" x1="491.47" y1="46.68" x2="438.63" y2="109.61"/><ellipse class="cls-5" cx="471.64" cy="7.76" rx="7.52" ry="7.27" transform="matrix(0.21, -0.98, 0.98, 0.21, 363.48, 466.9)"/><line class="cls-5" x1="471.59" y1="8.01" x2="438.63" y2="109.61"/><line class="cls-1" x1="291.63" y1="48.61" x2="438.63" y2="109.61"/><line class="cls-1" x1="283.63" y1="168.61" x2="438.63" y2="109.61"/><path class="cls-6" d="M414.43,419.21a17.35,17.35,0,0,1,20.28,13.6,17.08,17.08,0,0,1-13.56,20.12,17.35,17.35,0,0,1-20.27-13.61A17.06,17.06,0,0,1,414.43,419.21Z"/><path class="cls-6" d="M414.43,419.21a17.35,17.35,0,0,1,20.28,13.6,17.08,17.08,0,0,1-13.56,20.12,17.35,17.35,0,0,1-20.27-13.61A17.06,17.06,0,0,1,414.43,419.21Z"/><path class="cls-6" d="M316.66,386a11.13,11.13,0,0,1,13,8.74,11,11,0,0,1-8.7,13A11.13,11.13,0,0,1,308,399,11,11,0,0,1,316.66,386Z"/><path class="cls-6" d="M300.56,305.28a11.05,11.05,0,1,1-8.68,13A11,11,0,0,1,300.56,305.28Z"/><path class="cls-6" d="M399.59,262.52a11.47,11.47,0,1,1-8.66,13.38A11.32,11.32,0,0,1,399.59,262.52Z"/><path class="cls-6" d="M440.52,309a7.65,7.65,0,1,1-6,9A7.61,7.61,0,0,1,440.52,309Z"/><path class="cls-6" d="M254.05,478.81a5.35,5.35,0,0,1,6.26,4.22,5.27,5.27,0,0,1-4.18,6.23,5.37,5.37,0,0,1-6.26-4.22A5.27,5.27,0,0,1,254.05,478.81Z"/><path class="cls-6" d="M287.61,427.37a4.41,4.41,0,0,1,5,3.68,4.35,4.35,0,0,1-3.21,5.28,4.43,4.43,0,0,1-5-3.69A4.36,4.36,0,0,1,287.61,427.37Z"/><path class="cls-6" d="M348.63,323.86a4.43,4.43,0,0,1,5,3.69,4.22,4.22,0,1,1-5-3.69Z"/><line class="cls-1" x1="318.82" y1="396.88" x2="417.79" y2="436.07"/><line class="cls-1" x1="290.37" y1="431.49" x2="417.48" y2="436.51"/><line class="cls-1" x1="254.79" y1="484.48" x2="417.79" y2="436.07"/><line class="cls-1" x1="302.72" y1="316.12" x2="417.79" y2="436.07"/><line class="cls-1" x1="401.9" y1="274.14" x2="417.79" y2="436.07"/><line class="cls-1" x1="441.71" y1="316.99" x2="417.79" y2="436.07"/><line class="cls-1" x1="350.35" y1="328.58" x2="417.79" y2="436.07"/><path class="cls-6" d="M236.75,488.37a18.9,18.9,0,0,1,17.45-20.06,18.61,18.61,0,0,1,20.06,17.21,18.89,18.89,0,0,1-17.46,20.07A18.62,18.62,0,0,1,236.75,488.37Z"/><path class="cls-6" d="M236.75,488.37a18.9,18.9,0,0,1,17.45-20.06,18.61,18.61,0,0,1,20.06,17.21,18.89,18.89,0,0,1-17.46,20.07A18.62,18.62,0,0,1,236.75,488.37Z"/><path class="cls-6" d="M187.71,589.47a12.15,12.15,0,0,1,11.23-12.91,12,12,0,0,1,12.91,11.11,12.15,12.15,0,0,1-11.24,12.92A12,12,0,0,1,187.71,589.47Z"/><path class="cls-6" d="M97.92,596.17a12.13,12.13,0,0,1,11.21-12.9A12,12,0,0,1,122,594.37a12.13,12.13,0,0,1-11.22,12.9A12,12,0,0,1,97.92,596.17Z"/><path class="cls-6" d="M65.16,483.94A12.35,12.35,0,0,1,76.77,471a12.15,12.15,0,0,1,13.28,11A12.36,12.36,0,0,1,78.43,495,12.14,12.14,0,0,1,65.16,483.94Z"/><path class="cls-6" d="M120.94,446a8.38,8.38,0,0,1,7.73-8.91,8.24,8.24,0,0,1,8.88,7.64,8.38,8.38,0,0,1-7.73,8.9A8.24,8.24,0,0,1,120.94,446Z"/><path class="cls-6" d="M280.43,669.71a5.86,5.86,0,1,1,6.25,5.38A5.86,5.86,0,0,1,280.43,669.71Z"/><path class="cls-6" d="M228.79,626.41a5,5,0,1,1,5.31,4.19A4.77,4.77,0,0,1,228.79,626.41Z"/><path class="cls-6" d="M124.56,546.77a4.84,4.84,0,0,1,4.67-4.93,4.75,4.75,0,0,1,5.3,4.18,4.81,4.81,0,0,1-4.67,4.92A4.76,4.76,0,0,1,124.56,546.77Z"/><line class="cls-1" x1="199.78" y1="588.57" x2="255.5" y2="486.95"/><path class="cls-6" d="M214.77,410.1A12.15,12.15,0,0,1,221.2,426a12,12,0,0,1-15.75,6.48A12.14,12.14,0,0,1,199,416.57,12,12,0,0,1,214.77,410.1Z"/><line class="cls-7" x1="206.17" y1="414.76" x2="255.5" y2="486.95"/><line class="cls-1" x1="233.64" y1="623.96" x2="255.95" y2="487.33"/><line class="cls-1" x1="286.72" y1="669.67" x2="255.5" y2="486.95"/><line class="cls-1" x1="109.96" y1="595.27" x2="255.5" y2="486.95"/><line class="cls-1" x1="78.01" y1="482.96" x2="255.5" y2="486.95"/><line class="cls-1" x1="129.69" y1="445.78" x2="255.5" y2="486.95"/><line class="cls-1" x1="129.91" y1="545.53" x2="255.5" y2="486.95"/><path class="cls-6" d="M90.85,691.08a12.06,12.06,0,0,1,11.38,12.64,11.93,11.93,0,0,1-12.54,11.37A12.06,12.06,0,0,1,78.3,702.46,11.94,11.94,0,0,1,90.85,691.08Z"/><path class="cls-6" d="M90.85,691.08a12.06,12.06,0,0,1,11.38,12.64,11.93,11.93,0,0,1-12.54,11.37A12.06,12.06,0,0,1,78.3,702.46,11.94,11.94,0,0,1,90.85,691.08Z"/><path class="cls-6" d="M30.31,652a7.8,7.8,0,0,1,7.35,8.16,7.7,7.7,0,0,1-8.09,7.34,7.8,7.8,0,0,1-7.35-8.16A7.69,7.69,0,0,1,30.31,652Z"/><path class="cls-6" d="M33.06,594.24a7.8,7.8,0,0,1,7.35,8.17,7.69,7.69,0,0,1-8.09,7.35A7.81,7.81,0,0,1,25,601.59,7.69,7.69,0,0,1,33.06,594.24Z"/><path class="cls-6" d="M127.06,620.71a5.35,5.35,0,1,1-5.58,5.06A5.36,5.36,0,0,1,127.06,620.71Z"/><path class="cls-6" d="M25.14,704.85a3.76,3.76,0,0,1,3.55,3.94,3.72,3.72,0,0,1-3.9,3.54,3.78,3.78,0,0,1-3.56-3.94A3.72,3.72,0,0,1,25.14,704.85Z"/><path class="cls-6" d="M3.58,675.22a3.1,3.1,0,0,1,2.78,3.36,3.06,3.06,0,0,1-3.08,3A3.11,3.11,0,0,1,.5,678.27,3.06,3.06,0,0,1,3.58,675.22Z"/><path class="cls-6" d="M62.5,615.12a3.09,3.09,0,0,1,2.77,3.36,3.06,3.06,0,0,1-3.08,3.06,3.1,3.1,0,0,1-2.77-3.37A3.05,3.05,0,0,1,62.5,615.12Z"/><line class="cls-1" x1="29.94" y1="659.74" x2="90.27" y2="703.09"/><line class="cls-1" x1="4.76" y1="678.49" x2="89.99" y2="703.34"/><line class="cls-8" x1="27.48" y1="708.59" x2="90.27" y2="703.09"/><line class="cls-1" x1="32.69" y1="602" x2="90.27" y2="703.09"/><line class="cls-9" x1="107.45" y1="600.34" x2="88.38" y2="702.71"/><line class="cls-1" x1="126.52" y1="626.31" x2="90.27" y2="703.09"/><line class="cls-1" x1="62.86" y1="618.62" x2="90.27" y2="703.09"/><path class="cls-6" d="M89.8,714a10.22,10.22,0,0,1-11-9.25,10,10,0,0,1,9.09-10.94,10.23,10.23,0,0,1,11,9.25A10,10,0,0,1,89.8,714Z"/><path class="cls-6" d="M89.8,714a10.22,10.22,0,0,1-11-9.25,10,10,0,0,1,9.09-10.94,10.23,10.23,0,0,1,11,9.25A10,10,0,0,1,89.8,714Z"/><path class="cls-6" d="M145,739.77a6.6,6.6,0,0,1-7.1-6,6.46,6.46,0,0,1,5.9-7,6.63,6.63,0,0,1,7.11,6A6.45,6.45,0,0,1,145,739.77Z"/><path class="cls-6" d="M149.44,788.25a6.62,6.62,0,0,1-7.1-6,6.44,6.44,0,0,1,5.9-7,6.63,6.63,0,0,1,7.1,6A6.43,6.43,0,0,1,149.44,788.25Z"/><path class="cls-6" d="M89,806.55A6.72,6.72,0,0,1,82,800.36a6.49,6.49,0,0,1,5.83-7.21,6.72,6.72,0,0,1,7.09,6.19A6.49,6.49,0,0,1,89,806.55Z"/><path class="cls-6" d="M68.08,776.71a4.54,4.54,0,0,1-4.87-4.11,4.41,4.41,0,0,1,4-4.83,4.54,4.54,0,0,1,4.87,4.11A4.4,4.4,0,0,1,68.08,776.71Z"/><path class="cls-6" d="M187.64,689.05a3.21,3.21,0,0,1-3.45-2.9,3.15,3.15,0,0,1,2.87-3.42,3.2,3.2,0,0,1,3.45,2.89A3.15,3.15,0,0,1,187.64,689.05Z"/><path class="cls-6" d="M164.6,717.31a2.62,2.62,0,0,1-2.72-2.49,2.57,2.57,0,0,1,2.22-2.91,2.62,2.62,0,0,1,2.72,2.49A2.57,2.57,0,0,1,164.6,717.31Z"/><path class="cls-6" d="M122.43,774.15a2.63,2.63,0,0,1-2.71-2.49,2.55,2.55,0,0,1,2.2-2.89,2.63,2.63,0,0,1,2.71,2.49A2.55,2.55,0,0,1,122.43,774.15Z"/><line class="cls-1" x1="144.35" y1="733.26" x2="88.86" y2="703.93"/><line class="cls-1" x1="163.23" y1="714.7" x2="89.06" y2="703.68"/><line class="cls-1" x1="187.55" y1="685.64" x2="88.86" y2="703.93"/><line class="cls-1" x1="148.84" y1="781.75" x2="88.86" y2="703.93"/><line class="cls-1" x1="88.39" y1="799.63" x2="88.86" y2="703.93"/><line class="cls-1" x1="67.86" y1="772" x2="88.86" y2="703.93"/><line class="cls-1" x1="121.71" y1="771.27" x2="88.86" y2="703.93"/><path class="cls-6" d="M414.76,446.84a11.89,11.89,0,1,1,16.4-3.52A11.92,11.92,0,0,1,414.76,446.84Z"/><path class="cls-6" d="M414.76,446.84a11.89,11.89,0,1,1,16.4-3.52A11.92,11.92,0,0,1,414.76,446.84Z"/><path class="cls-6" d="M447.33,510.48a7.76,7.76,0,0,1-2.27-10.68,7.63,7.63,0,0,1,10.6-2.27,7.75,7.75,0,0,1,2.27,10.68A7.63,7.63,0,0,1,447.33,510.48Z"/><path class="cls-6" d="M416.24,558.79A7.79,7.79,0,0,1,414,548.07a7.64,7.64,0,0,1,10.62-2.27,7.8,7.8,0,0,1,2.26,10.72A7.63,7.63,0,0,1,416.24,558.79Z"/><path class="cls-6" d="M346.49,532.07a7.9,7.9,0,0,1-2.07-10.91,7.74,7.74,0,0,1,10.72-2.48,7.89,7.89,0,0,1,2.08,10.9A7.75,7.75,0,0,1,346.49,532.07Z"/><path class="cls-6" d="M348.81,489.13a5.32,5.32,0,0,1-1.53-7.33,5.26,5.26,0,0,1,7.29-1.57,5.33,5.33,0,0,1,1.53,7.34A5.25,5.25,0,0,1,348.81,489.13Z"/><path class="cls-6" d="M523.66,494.33a3.76,3.76,0,0,1-1.12-5.16,3.7,3.7,0,0,1,5.13-1.09,3.75,3.75,0,0,1,1.12,5.15A3.69,3.69,0,0,1,523.66,494.33Z"/><path class="cls-6" d="M481.87,503.85a3.07,3.07,0,0,1-.72-4.27,3,3,0,0,1,4.16-1.09,3.1,3.1,0,0,1,.73,4.28A3,3,0,0,1,481.87,503.85Z"/><path class="cls-6" d="M401.34,526.1a3.08,3.08,0,0,1-.71-4.28,3,3,0,0,1,4.16-1.08,3.07,3.07,0,0,1,.71,4.27A3,3,0,0,1,401.34,526.1Z"/><line class="cls-1" x1="451.5" y1="504" x2="421.21" y2="436.85"/><line class="cls-1" x1="482.48" y1="500.45" x2="421.58" y2="436.77"/><line class="cls-1" x1="526.03" y1="491.12" x2="421.21" y2="436.85"/><line class="cls-1" x1="420.42" y1="552.29" x2="421.21" y2="436.85"/><line class="cls-1" x1="350.96" y1="525.15" x2="421.21" y2="436.85"/><line class="cls-1" x1="352.05" y1="484.6" x2="421.21" y2="436.85"/><line class="cls-1" x1="402.77" y1="522.9" x2="421.21" y2="436.85"/></svg>